<mxfile host="Electron" modified="2024-07-25T09:53:29.435Z" agent="Mozilla/5.0 (Windows NT 10.0; Win64; x64) AppleWebKit/537.36 (KHTML, like Gecko) draw.io/24.6.1 Chrome/124.0.6367.207 Electron/30.0.6 Safari/537.36" etag="-NdOefVyTWZ_uTla706D" version="24.6.1" type="device">
  <diagram name="Page-1" id="szIJWb79tipBRCTtPQfW">
    <mxGraphModel dx="2284" dy="844" grid="1" gridSize="10" guides="1" tooltips="1" connect="1" arrows="1" fold="1" page="1" pageScale="1" pageWidth="850" pageHeight="1100" math="0" shadow="0">
      <root>
        <mxCell id="0" />
        <mxCell id="1" parent="0" />
        <mxCell id="iv9Bos_6P7VR_93HYSYk-1" value="&lt;font style=&quot;font-size: 20px;&quot;&gt;Client&lt;/font&gt;&lt;div style=&quot;font-size: 20px;&quot;&gt;&lt;font style=&quot;font-size: 20px;&quot;&gt;Service&lt;/font&gt;&lt;/div&gt;" style="rounded=1;whiteSpace=wrap;html=1;" vertex="1" parent="1">
          <mxGeometry x="-840" y="360" width="200" height="120" as="geometry" />
        </mxCell>
        <mxCell id="iv9Bos_6P7VR_93HYSYk-4" value="&lt;font style=&quot;font-size: 20px;&quot;&gt;Client&lt;/font&gt;&lt;div style=&quot;font-size: 20px;&quot;&gt;&lt;font style=&quot;font-size: 20px;&quot;&gt;Service&lt;/font&gt;&lt;/div&gt;" style="rounded=1;whiteSpace=wrap;html=1;" vertex="1" parent="1">
          <mxGeometry x="160" y="360" width="200" height="120" as="geometry" />
        </mxCell>
        <mxCell id="iv9Bos_6P7VR_93HYSYk-5" value="" style="endArrow=classic;html=1;rounded=0;exitX=0.5;exitY=0;exitDx=0;exitDy=0;entryX=0.5;entryY=0;entryDx=0;entryDy=0;flowAnimation=1;" edge="1" parent="1" source="iv9Bos_6P7VR_93HYSYk-1" target="iv9Bos_6P7VR_93HYSYk-4">
          <mxGeometry width="50" height="50" relative="1" as="geometry">
            <mxPoint x="-760" y="300" as="sourcePoint" />
            <mxPoint x="-710" y="250" as="targetPoint" />
            <Array as="points">
              <mxPoint x="-740" y="240" />
              <mxPoint x="260" y="240" />
            </Array>
          </mxGeometry>
        </mxCell>
        <mxCell id="iv9Bos_6P7VR_93HYSYk-6" value="&lt;font style=&quot;font-size: 14px;&quot;&gt;Regsiter Client&lt;/font&gt;" style="edgeLabel;html=1;align=center;verticalAlign=middle;resizable=0;points=[];" vertex="1" connectable="0" parent="iv9Bos_6P7VR_93HYSYk-5">
          <mxGeometry x="-0.0452" y="-2" relative="1" as="geometry">
            <mxPoint y="-22" as="offset" />
          </mxGeometry>
        </mxCell>
        <mxCell id="iv9Bos_6P7VR_93HYSYk-7" value="" style="endArrow=classic;html=1;rounded=0;exitX=0;exitY=0.25;exitDx=0;exitDy=0;entryX=1;entryY=0.25;entryDx=0;entryDy=0;flowAnimation=1;" edge="1" parent="1" source="iv9Bos_6P7VR_93HYSYk-4" target="iv9Bos_6P7VR_93HYSYk-1">
          <mxGeometry width="50" height="50" relative="1" as="geometry">
            <mxPoint x="-290" y="410" as="sourcePoint" />
            <mxPoint x="-240" y="360" as="targetPoint" />
          </mxGeometry>
        </mxCell>
        <mxCell id="iv9Bos_6P7VR_93HYSYk-8" value="&lt;font style=&quot;font-size: 14px;&quot;&gt;Private Key + Public Key + User ID&lt;/font&gt;" style="edgeLabel;html=1;align=center;verticalAlign=middle;resizable=0;points=[];" vertex="1" connectable="0" parent="iv9Bos_6P7VR_93HYSYk-7">
          <mxGeometry x="0.0925" y="-3" relative="1" as="geometry">
            <mxPoint y="-17" as="offset" />
          </mxGeometry>
        </mxCell>
        <mxCell id="iv9Bos_6P7VR_93HYSYk-9" value="" style="endArrow=classic;html=1;rounded=0;exitX=0.5;exitY=1;exitDx=0;exitDy=0;entryX=0.5;entryY=1;entryDx=0;entryDy=0;flowAnimation=1;" edge="1" parent="1" source="iv9Bos_6P7VR_93HYSYk-1" target="iv9Bos_6P7VR_93HYSYk-4">
          <mxGeometry width="50" height="50" relative="1" as="geometry">
            <mxPoint x="-740" y="630" as="sourcePoint" />
            <mxPoint x="-690" y="580" as="targetPoint" />
            <Array as="points">
              <mxPoint x="-740" y="640" />
              <mxPoint x="260" y="640" />
            </Array>
          </mxGeometry>
        </mxCell>
        <mxCell id="iv9Bos_6P7VR_93HYSYk-14" value="&lt;font style=&quot;font-size: 14px;&quot;&gt;Signature + Public Key&lt;/font&gt;" style="edgeLabel;html=1;align=center;verticalAlign=middle;resizable=0;points=[];" vertex="1" connectable="0" parent="iv9Bos_6P7VR_93HYSYk-9">
          <mxGeometry x="-0.0818" y="-1" relative="1" as="geometry">
            <mxPoint x="44" y="-21" as="offset" />
          </mxGeometry>
        </mxCell>
        <mxCell id="iv9Bos_6P7VR_93HYSYk-10" value="" style="endArrow=classic;html=1;rounded=0;exitX=0;exitY=0.75;exitDx=0;exitDy=0;entryX=1;entryY=0.75;entryDx=0;entryDy=0;flowAnimation=1;" edge="1" parent="1" source="iv9Bos_6P7VR_93HYSYk-4" target="iv9Bos_6P7VR_93HYSYk-1">
          <mxGeometry width="50" height="50" relative="1" as="geometry">
            <mxPoint x="-400" y="520" as="sourcePoint" />
            <mxPoint x="-350" y="470" as="targetPoint" />
          </mxGeometry>
        </mxCell>
        <mxCell id="iv9Bos_6P7VR_93HYSYk-11" value="&lt;font style=&quot;font-size: 14px;&quot;&gt;Resource&lt;/font&gt;" style="edgeLabel;html=1;align=center;verticalAlign=middle;resizable=0;points=[];" vertex="1" connectable="0" parent="iv9Bos_6P7VR_93HYSYk-10">
          <mxGeometry x="0.02" y="4" relative="1" as="geometry">
            <mxPoint x="8" y="16" as="offset" />
          </mxGeometry>
        </mxCell>
      </root>
    </mxGraphModel>
  </diagram>
</mxfile>
